<svg xmlns="http://www.w3.org/2000/svg" width="916px" height="639px" viewBox="0 0 916 639" xmlns:xlink="http://www.w3.org/1999/xlink" style="overflow: hidden; display: block; width: 916px; height: 639px;"><rect width="916px" height="639px" fill="#1E1E1E"/><clipPath id="ygc152_3"><rect y="25" height="588.709" x="25" width="865.051"/></clipPath><g clip-path="url(#ygc152_3)"><g style="pointer-events:visiblePainted" transform="translate(30 30)" image-rendering="auto" shape-rendering="auto"><g><path fill="none" stroke="rgb(255,255,255)" d="M 546.3294719527382,230.1168131697941 L 461.7692105783385,230.1168131697941" stroke-opacity="1" stroke-width="1" stroke-dasharray="2,2" stroke-dashoffset="1" stroke-linecap="butt" stroke-linejoin="miter" stroke-miterlimit="10"/><use xlink:href="#ygc152_0" transform="translate(456.7692105783385 230.1168131697941)" style="pointer-events: none;"/></g><g><path fill="none" stroke="rgb(255,255,255)" d="M 716.5511159252991,337.83845714235486 L 659.0721126398576,280.3594538569134" stroke-opacity="1" stroke-width="1" stroke-linecap="butt" stroke-linejoin="miter" stroke-miterlimit="10"/><use xlink:href="#ygc152_1" transform="matrix(0.7071067811865479 0.7071067811865471 -0.7071067811865471 0.7071067811865479 655.5365787339248 276.82391995098067)" style="pointer-events: none;"/></g><g><path fill="none" stroke="rgb(255,255,255)" d="M 716.551115925299,122.39516919723329 L 659.0721126398576,179.87417248267482" stroke-opacity="1" stroke-width="1" stroke-linecap="butt" stroke-linejoin="miter" stroke-miterlimit="10"/><use xlink:href="#ygc152_1" transform="matrix(0.7071067811865468 -0.7071067811865482 0.7071067811865482 0.7071067811865468 655.5365787339248 183.40970638860756)" style="pointer-events: none;"/></g><g><path fill="none" stroke="rgb(255,255,255)" d="M 347.9170794542092,296.3288508936692 L 301.92362293446615,368.2336263395882" stroke-opacity="1" stroke-width="1" stroke-linecap="butt" stroke-linejoin="miter" stroke-miterlimit="10"/><g/><use xlink:href="#ygc152_2" transform="matrix(-0.5388409120567286 0.8424075447750174 -0.8424075447750174 -0.5388409120567286 350.23026595159683 292.71248525722723)" style="pointer-events: none;"/></g><g><path fill="none" stroke="rgb(255,255,255)" d="M 347.9170794542092,163.90477544591903 L 301.92362293446615,92" stroke-opacity="1" stroke-width="1" stroke-linecap="butt" stroke-linejoin="miter" stroke-miterlimit="10"/><g/><use xlink:href="#ygc152_2" transform="matrix(-0.5388409120567286 -0.8424075447750174 0.8424075447750174 -0.5388409120567286 350.23026595159683 167.521141082361)" style="pointer-events: none;"/></g><g><path fill="none" stroke="rgb(255,255,255)" d="M 82,356.3546295885453 L 82.00000000000001,486.70925917709064" stroke-opacity="1" stroke-width="1" stroke-linecap="butt" stroke-linejoin="miter" stroke-miterlimit="10"/><g/><use xlink:href="#ygc152_2" transform="matrix(1.09016877728528e-16 1 -1 1.09016877728528e-16 82 352.0617363697319)" style="pointer-events: none;"/></g><g><path fill="none" stroke="rgb(255,255,255)" d="M 82,222.35462958854532 L 82.00000000000001,92" stroke-opacity="1" stroke-width="1" stroke-linecap="butt" stroke-linejoin="miter" stroke-miterlimit="10"/><g/><use xlink:href="#ygc152_2" transform="matrix(1.09016877728528e-16 -1 1 1.09016877728528e-16 82 226.64752280735877)" style="pointer-events: none;"/></g><g class="uml-node" transform="translate(546.3294719527382 184.1168131697941)"><rect fill="rgb(255,87,34)" stroke="rgb(255,87,34)" stroke-opacity="1" stroke-width="2" stroke-linecap="butt" stroke-linejoin="miter" stroke-miterlimit="10" fill-opacity="1" y="0" height="92" x="0" width="125"/><g transform="translate(0 0)"><text font-family="'Arial'" font-size="12px" font-style="normal" font-weight="normal" text-decoration="none" text-anchor="middle" fill="rgb(255,255,255)" fill-opacity="1" dy="1em" transform="translate(62.5 17.5)">Abstract</text></g><g transform="translate(0 5)"><text font-family="Arial" font-size="10px" font-style="italic" font-weight="normal" text-decoration="none" text-anchor="middle" fill="rgb(255,255,255)" fill-opacity="1" dy="1em" transform="translate(62.5 0)">&lt;&lt;abstract&gt;&gt;</text></g><rect fill="rgb(255,255,255)" x="1" y="50" width="123" height="2"/><g transform="translate(0 52)" cursor="pointer"><rect fill="rgb(255,87,34)" stroke="none" fill-opacity="1" y="0" height="20" ry="0" x="0" rx="0" width="125"/><polygon fill="white" points="-3.5,5 6,0 -3.5,-5" transform="translate(12 10)" class="uml-button"/><g class="uml-button"><rect fill="rgb(255,87,34)" fill-opacity="1" x="88px" y="2px" width="16px" height="16px"/><path fill="white" d="M8.5,16.5c-4.418,0-8,3.582-8,8s3.582,8,8,8c4.418,0,8-3.582,8-8S12.918,16.5,8.5,16.5z M13.5,25.5h-4v4h-2v-4h-4v-2h4v-4h2v4h4V25.5z" transform="matrix(0.8 0 0 0.8 89 -10)"/></g><g class="uml-button disabled"><rect fill="rgb(255,87,34)" fill-opacity="1" x="106px" y="2px" width="16px" height="16px"/><path fill="white" fill-opacity="0.5" d="M8.5,16.5c-4.418,0-8,3.582-8,8s3.582,8,8,8c4.418,0,8-3.582,8-8S12.918,16.5,8.5,16.5z M13.5,25.5h-10v-2h10V25.5z" transform="matrix(0.8 0 0 0.8 107 -10)"/></g></g><g transform="translate(25 52)" cursor="pointer"><text font-family="'Arial'" font-size="12px" font-style="normal" font-weight="normal" text-decoration="none" text-anchor="start" fill="rgb(255,255,255)" fill-opacity="1" dy="1em" transform="translate(0 2.5)">Attributes</text></g><rect fill="rgb(255,255,255)" x="1" y="72" width="123" height="0"/><g transform="translate(0 72)" cursor="pointer"><rect fill="rgb(255,87,34)" stroke="none" fill-opacity="1" y="0" height="20" ry="0" x="0" rx="0" width="125"/><polygon fill="white" points="-3.5,5 6,0 -3.5,-5" transform="translate(12 10)" class="uml-button"/><g class="uml-button"><rect fill="rgb(255,87,34)" fill-opacity="1" x="88px" y="2px" width="16px" height="16px"/><path fill="white" d="M8.5,16.5c-4.418,0-8,3.582-8,8s3.582,8,8,8c4.418,0,8-3.582,8-8S12.918,16.5,8.5,16.5z M13.5,25.5h-4v4h-2v-4h-4v-2h4v-4h2v4h4V25.5z" transform="matrix(0.8 0 0 0.8 89 -10)"/></g><g class="uml-button disabled"><rect fill="rgb(255,87,34)" fill-opacity="1" x="106px" y="2px" width="16px" height="16px"/><path fill="white" fill-opacity="0.5" d="M8.5,16.5c-4.418,0-8,3.582-8,8s3.582,8,8,8c4.418,0,8-3.582,8-8S12.918,16.5,8.5,16.5z M13.5,25.5h-10v-2h10V25.5z" transform="matrix(0.8 0 0 0.8 107 -10)"/></g></g><g transform="translate(25 72)" cursor="pointer"><text font-family="'Arial'" font-size="12px" font-style="normal" font-weight="normal" text-decoration="none" text-anchor="start" fill="rgb(255,255,255)" fill-opacity="1" dy="1em" transform="translate(0 2.5)">Operations</text></g><rect fill="rgb(255,255,255)" x="1" y="92" width="123" height="0"/><rect fill="rgb(255,255,255)" x="1" y="92" width="123" height="2"/></g><g class="uml-node" transform="translate(324.7692105783385 168.1168131697941)"><rect fill="rgb(76,175,80)" stroke="rgb(76,175,80)" stroke-opacity="1" stroke-width="2" stroke-linecap="butt" stroke-linejoin="miter" stroke-miterlimit="10" fill-opacity="1" y="0" height="124" x="0" width="131"/><g transform="translate(0 0)"><text font-family="'Arial'" font-size="12px" font-style="normal" font-weight="normal" text-decoration="none" text-anchor="middle" fill="rgb(255,255,255)" fill-opacity="1" dy="1em" transform="translate(65.5 17.5)">EsxpressionIterator</text></g><g transform="translate(0 5)"><text font-family="Arial" font-size="10px" font-style="italic" font-weight="normal" text-decoration="none" text-anchor="middle" fill="rgb(255,255,255)" fill-opacity="1" dy="1em" transform="translate(65.5 0)">&lt;&lt;interface&gt;&gt;</text></g><rect fill="rgb(255,255,255)" x="1" y="50" width="129" height="2"/><g transform="translate(0 52)" cursor="pointer"><rect fill="rgb(76,175,80)" stroke="none" fill-opacity="1" y="0" height="20" ry="0" x="0" rx="0" width="131"/><polygon fill="white" points="-5,-3.5 5,-3.5 0,6" transform="translate(12 10)" class="uml-button"/><g class="uml-button"><rect fill="rgb(76,175,80)" fill-opacity="1" x="94px" y="2px" width="16px" height="16px"/><path fill="white" d="M8.5,16.5c-4.418,0-8,3.582-8,8s3.582,8,8,8c4.418,0,8-3.582,8-8S12.918,16.5,8.5,16.5z M13.5,25.5h-4v4h-2v-4h-4v-2h4v-4h2v4h4V25.5z" transform="matrix(0.8 0 0 0.8 95 -10)"/></g><g class="uml-button disabled"><rect fill="rgb(76,175,80)" fill-opacity="1" x="112px" y="2px" width="16px" height="16px"/><path fill="white" fill-opacity="0.5" d="M8.5,16.5c-4.418,0-8,3.582-8,8s3.582,8,8,8c4.418,0,8-3.582,8-8S12.918,16.5,8.5,16.5z M13.5,25.5h-10v-2h10V25.5z" transform="matrix(0.8 0 0 0.8 113 -10)"/></g></g><g transform="translate(25 52)" cursor="pointer"><text font-family="'Arial'" font-size="12px" font-style="normal" font-weight="normal" text-decoration="none" text-anchor="start" fill="rgb(255,255,255)" fill-opacity="1" dy="1em" transform="translate(0 2.5)">Attributes</text></g><rect fill="rgb(255,255,255)" x="1" y="72" width="129" height="0"/><g transform="translate(0 72)" cursor="pointer"><rect fill="rgb(76,175,80)" stroke="none" fill-opacity="1" y="0" height="20" ry="0" x="0" rx="0" width="131"/><polygon fill="white" points="-5,-3.5 5,-3.5 0,6" transform="translate(12 10)" class="uml-button"/><g class="uml-button"><rect fill="rgb(76,175,80)" fill-opacity="1" x="94px" y="2px" width="16px" height="16px"/><path fill="white" d="M8.5,16.5c-4.418,0-8,3.582-8,8s3.582,8,8,8c4.418,0,8-3.582,8-8S12.918,16.5,8.5,16.5z M13.5,25.5h-4v4h-2v-4h-4v-2h4v-4h2v4h4V25.5z" transform="matrix(0.8 0 0 0.8 95 -10)"/></g><g class="uml-button disabled"><rect fill="rgb(76,175,80)" fill-opacity="1" x="112px" y="2px" width="16px" height="16px"/><path fill="white" fill-opacity="0.5" d="M8.5,16.5c-4.418,0-8,3.582-8,8s3.582,8,8,8c4.418,0,8-3.582,8-8S12.918,16.5,8.5,16.5z M13.5,25.5h-10v-2h10V25.5z" transform="matrix(0.8 0 0 0.8 113 -10)"/></g></g><g transform="translate(25 72)" cursor="pointer"><text font-family="'Arial'" font-size="12px" font-style="normal" font-weight="normal" text-decoration="none" text-anchor="start" fill="rgb(255,255,255)" fill-opacity="1" dy="1em" transform="translate(0 2.5)">Operations</text></g><rect fill="rgb(255,255,255)" x="1" y="92" width="129" height="32"/><g transform="translate(25 92)"><text font-family="'Arial'" font-size="12px" font-style="normal" font-weight="normal" text-decoration="none" text-anchor="start" fill="rgb(0,0,0)" fill-opacity="1" dy="1em" transform="translate(0 0.5)">next() : Expression</text></g><g transform="translate(25 108)"><text font-family="'Arial'" font-size="12px" font-style="normal" font-weight="normal" text-decoration="none" text-anchor="start" fill="rgb(0,0,0)" fill-opacity="1" dy="1em" transform="translate(0 0.5)">hashNext() : bool</text></g><rect fill="rgb(255,255,255)" x="1" y="124" width="129" height="0"/></g><g class="uml-node" transform="translate(686.0511159252991 337.83845714235486)"><rect fill="rgb(96,125,139)" stroke="rgb(96,125,139)" stroke-opacity="1" stroke-width="2" stroke-linecap="butt" stroke-linejoin="miter" stroke-miterlimit="10" fill-opacity="1" y="0" height="108" x="0" width="169"/><g transform="translate(0 0)"><text font-family="'Arial'" font-size="12px" font-style="normal" font-weight="normal" text-decoration="none" text-anchor="middle" fill="rgb(255,255,255)" fill-opacity="1" dy="1em" transform="translate(84.5 17.5)">NumberExpression</text></g><rect fill="rgb(255,255,255)" x="1" y="50" width="167" height="2"/><g transform="translate(0 52)" cursor="pointer"><rect fill="rgb(96,125,139)" stroke="none" fill-opacity="1" y="0" height="20" ry="0" x="0" rx="0" width="169"/><polygon fill="white" points="-3.5,5 6,0 -3.5,-5" transform="translate(12 10)" class="uml-button"/><g class="uml-button"><rect fill="rgb(96,125,139)" fill-opacity="1" x="132px" y="2px" width="16px" height="16px"/><path fill="white" d="M8.5,16.5c-4.418,0-8,3.582-8,8s3.582,8,8,8c4.418,0,8-3.582,8-8S12.918,16.5,8.5,16.5z M13.5,25.5h-4v4h-2v-4h-4v-2h4v-4h2v4h4V25.5z" transform="matrix(0.8 0 0 0.8 133 -10)"/></g><g class="uml-button disabled"><rect fill="rgb(96,125,139)" fill-opacity="1" x="150px" y="2px" width="16px" height="16px"/><path fill="white" fill-opacity="0.5" d="M8.5,16.5c-4.418,0-8,3.582-8,8s3.582,8,8,8c4.418,0,8-3.582,8-8S12.918,16.5,8.5,16.5z M13.5,25.5h-10v-2h10V25.5z" transform="matrix(0.8 0 0 0.8 151 -10)"/></g></g><g transform="translate(25 52)" cursor="pointer"><text font-family="'Arial'" font-size="12px" font-style="normal" font-weight="normal" text-decoration="none" text-anchor="start" fill="rgb(255,255,255)" fill-opacity="1" dy="1em" transform="translate(0 2.5)">Attributes</text></g><rect fill="rgb(255,255,255)" x="1" y="72" width="167" height="0"/><g transform="translate(0 72)" cursor="pointer"><rect fill="rgb(96,125,139)" stroke="none" fill-opacity="1" y="0" height="20" ry="0" x="0" rx="0" width="169"/><polygon fill="white" points="-5,-3.5 5,-3.5 0,6" transform="translate(12 10)" class="uml-button"/><g class="uml-button"><rect fill="rgb(96,125,139)" fill-opacity="1" x="132px" y="2px" width="16px" height="16px"/><path fill="white" d="M8.5,16.5c-4.418,0-8,3.582-8,8s3.582,8,8,8c4.418,0,8-3.582,8-8S12.918,16.5,8.5,16.5z M13.5,25.5h-4v4h-2v-4h-4v-2h4v-4h2v4h4V25.5z" transform="matrix(0.8 0 0 0.8 133 -10)"/></g><g class="uml-button disabled"><rect fill="rgb(96,125,139)" fill-opacity="1" x="150px" y="2px" width="16px" height="16px"/><path fill="white" fill-opacity="0.5" d="M8.5,16.5c-4.418,0-8,3.582-8,8s3.582,8,8,8c4.418,0,8-3.582,8-8S12.918,16.5,8.5,16.5z M13.5,25.5h-10v-2h10V25.5z" transform="matrix(0.8 0 0 0.8 151 -10)"/></g></g><g transform="translate(25 72)" cursor="pointer"><text font-family="'Arial'" font-size="12px" font-style="normal" font-weight="normal" text-decoration="none" text-anchor="start" fill="rgb(255,255,255)" fill-opacity="1" dy="1em" transform="translate(0 2.5)">Operations</text></g><rect fill="rgb(255,255,255)" x="1" y="92" width="167" height="16"/><g transform="translate(25 92)"><text font-family="'Arial'" font-size="12px" font-style="normal" font-weight="normal" text-decoration="none" text-anchor="start" fill="rgb(0,0,0)" fill-opacity="1" dy="1em" transform="translate(0 0.5)">accept(ExpressionVisitor)</text></g><rect fill="rgb(255,255,255)" x="1" y="108" width="167" height="0"/></g><g class="uml-node" transform="translate(686.051115925299 14.395169197233287)"><rect fill="rgb(96,125,139)" stroke="rgb(96,125,139)" stroke-opacity="1" stroke-width="2" stroke-linecap="butt" stroke-linejoin="miter" stroke-miterlimit="10" fill-opacity="1" y="0" height="108" x="0" width="169"/><g transform="translate(0 0)"><text font-family="'Arial'" font-size="12px" font-style="normal" font-weight="normal" text-decoration="none" text-anchor="middle" fill="rgb(255,255,255)" fill-opacity="1" dy="1em" transform="translate(84.5 17.5)">BinaryExpression</text></g><rect fill="rgb(255,255,255)" x="1" y="50" width="167" height="2"/><g transform="translate(0 52)" cursor="pointer"><rect fill="rgb(96,125,139)" stroke="none" fill-opacity="1" y="0" height="20" ry="0" x="0" rx="0" width="169"/><polygon fill="white" points="-3.5,5 6,0 -3.5,-5" transform="translate(12 10)" class="uml-button"/><g class="uml-button"><rect fill="rgb(96,125,139)" fill-opacity="1" x="132px" y="2px" width="16px" height="16px"/><path fill="white" d="M8.5,16.5c-4.418,0-8,3.582-8,8s3.582,8,8,8c4.418,0,8-3.582,8-8S12.918,16.5,8.5,16.5z M13.5,25.5h-4v4h-2v-4h-4v-2h4v-4h2v4h4V25.5z" transform="matrix(0.8 0 0 0.8 133 -10)"/></g><g class="uml-button disabled"><rect fill="rgb(96,125,139)" fill-opacity="1" x="150px" y="2px" width="16px" height="16px"/><path fill="white" fill-opacity="0.5" d="M8.5,16.5c-4.418,0-8,3.582-8,8s3.582,8,8,8c4.418,0,8-3.582,8-8S12.918,16.5,8.5,16.5z M13.5,25.5h-10v-2h10V25.5z" transform="matrix(0.8 0 0 0.8 151 -10)"/></g></g><g transform="translate(25 52)" cursor="pointer"><text font-family="'Arial'" font-size="12px" font-style="normal" font-weight="normal" text-decoration="none" text-anchor="start" fill="rgb(255,255,255)" fill-opacity="1" dy="1em" transform="translate(0 2.5)">Attributes</text></g><rect fill="rgb(255,255,255)" x="1" y="72" width="167" height="0"/><g transform="translate(0 72)" cursor="pointer"><rect fill="rgb(96,125,139)" stroke="none" fill-opacity="1" y="0" height="20" ry="0" x="0" rx="0" width="169"/><polygon fill="white" points="-5,-3.5 5,-3.5 0,6" transform="translate(12 10)" class="uml-button"/><g class="uml-button"><rect fill="rgb(96,125,139)" fill-opacity="1" x="132px" y="2px" width="16px" height="16px"/><path fill="white" d="M8.5,16.5c-4.418,0-8,3.582-8,8s3.582,8,8,8c4.418,0,8-3.582,8-8S12.918,16.5,8.5,16.5z M13.5,25.5h-4v4h-2v-4h-4v-2h4v-4h2v4h4V25.5z" transform="matrix(0.8 0 0 0.8 133 -10)"/></g><g class="uml-button disabled"><rect fill="rgb(96,125,139)" fill-opacity="1" x="150px" y="2px" width="16px" height="16px"/><path fill="white" fill-opacity="0.5" d="M8.5,16.5c-4.418,0-8,3.582-8,8s3.582,8,8,8c4.418,0,8-3.582,8-8S12.918,16.5,8.5,16.5z M13.5,25.5h-10v-2h10V25.5z" transform="matrix(0.8 0 0 0.8 151 -10)"/></g></g><g transform="translate(25 72)" cursor="pointer"><text font-family="'Arial'" font-size="12px" font-style="normal" font-weight="normal" text-decoration="none" text-anchor="start" fill="rgb(255,255,255)" fill-opacity="1" dy="1em" transform="translate(0 2.5)">Operations</text></g><rect fill="rgb(255,255,255)" x="1" y="92" width="167" height="16"/><g transform="translate(25 92)"><text font-family="'Arial'" font-size="12px" font-style="normal" font-weight="normal" text-decoration="none" text-anchor="start" fill="rgb(0,0,0)" fill-opacity="1" dy="1em" transform="translate(0 0.5)">accept(ExpressionVisitor)</text></g><rect fill="rgb(255,255,255)" x="1" y="108" width="167" height="0"/></g><g class="uml-node" transform="translate(210 368.2336263395882)"><rect fill="rgb(96,125,139)" stroke="rgb(96,125,139)" stroke-opacity="1" stroke-width="2" stroke-linecap="butt" stroke-linejoin="miter" stroke-miterlimit="10" fill-opacity="1" y="0" height="92" x="0" width="125"/><g transform="translate(0 0)"><text font-family="'Arial'" font-size="12px" font-style="normal" font-weight="normal" text-decoration="none" text-anchor="middle" fill="rgb(255,255,255)" fill-opacity="1" dy="1em" transform="translate(62.5 17.5)">ProfondeurIterator</text></g><rect fill="rgb(255,255,255)" x="1" y="50" width="123" height="2"/><g transform="translate(0 52)" cursor="pointer"><rect fill="rgb(96,125,139)" stroke="none" fill-opacity="1" y="0" height="20" ry="0" x="0" rx="0" width="125"/><polygon fill="white" points="-3.5,5 6,0 -3.5,-5" transform="translate(12 10)" class="uml-button"/><g class="uml-button"><rect fill="rgb(96,125,139)" fill-opacity="1" x="88px" y="2px" width="16px" height="16px"/><path fill="white" d="M8.5,16.5c-4.418,0-8,3.582-8,8s3.582,8,8,8c4.418,0,8-3.582,8-8S12.918,16.5,8.5,16.5z M13.5,25.5h-4v4h-2v-4h-4v-2h4v-4h2v4h4V25.5z" transform="matrix(0.8 0 0 0.8 89 -10)"/></g><g class="uml-button disabled"><rect fill="rgb(96,125,139)" fill-opacity="1" x="106px" y="2px" width="16px" height="16px"/><path fill="white" fill-opacity="0.5" d="M8.5,16.5c-4.418,0-8,3.582-8,8s3.582,8,8,8c4.418,0,8-3.582,8-8S12.918,16.5,8.5,16.5z M13.5,25.5h-10v-2h10V25.5z" transform="matrix(0.8 0 0 0.8 107 -10)"/></g></g><g transform="translate(25 52)" cursor="pointer"><text font-family="'Arial'" font-size="12px" font-style="normal" font-weight="normal" text-decoration="none" text-anchor="start" fill="rgb(255,255,255)" fill-opacity="1" dy="1em" transform="translate(0 2.5)">Attributes</text></g><rect fill="rgb(255,255,255)" x="1" y="72" width="123" height="0"/><g transform="translate(0 72)" cursor="pointer"><rect fill="rgb(96,125,139)" stroke="none" fill-opacity="1" y="0" height="20" ry="0" x="0" rx="0" width="125"/><polygon fill="white" points="-3.5,5 6,0 -3.5,-5" transform="translate(12 10)" class="uml-button"/><g class="uml-button"><rect fill="rgb(96,125,139)" fill-opacity="1" x="88px" y="2px" width="16px" height="16px"/><path fill="white" d="M8.5,16.5c-4.418,0-8,3.582-8,8s3.582,8,8,8c4.418,0,8-3.582,8-8S12.918,16.5,8.5,16.5z M13.5,25.5h-4v4h-2v-4h-4v-2h4v-4h2v4h4V25.5z" transform="matrix(0.8 0 0 0.8 89 -10)"/></g><g class="uml-button disabled"><rect fill="rgb(96,125,139)" fill-opacity="1" x="106px" y="2px" width="16px" height="16px"/><path fill="white" fill-opacity="0.5" d="M8.5,16.5c-4.418,0-8,3.582-8,8s3.582,8,8,8c4.418,0,8-3.582,8-8S12.918,16.5,8.5,16.5z M13.5,25.5h-10v-2h10V25.5z" transform="matrix(0.8 0 0 0.8 107 -10)"/></g></g><g transform="translate(25 72)" cursor="pointer"><text font-family="'Arial'" font-size="12px" font-style="normal" font-weight="normal" text-decoration="none" text-anchor="start" fill="rgb(255,255,255)" fill-opacity="1" dy="1em" transform="translate(0 2.5)">Operations</text></g><rect fill="rgb(255,255,255)" x="1" y="92" width="123" height="0"/><rect fill="rgb(255,255,255)" x="1" y="92" width="123" height="2"/></g><g class="uml-node" transform="translate(210 0)"><rect fill="rgb(96,125,139)" stroke="rgb(96,125,139)" stroke-opacity="1" stroke-width="2" stroke-linecap="butt" stroke-linejoin="miter" stroke-miterlimit="10" fill-opacity="1" y="0" height="92" x="0" width="125"/><g transform="translate(0 0)"><text font-family="'Arial'" font-size="12px" font-style="normal" font-weight="normal" text-decoration="none" text-anchor="middle" fill="rgb(255,255,255)" fill-opacity="1" dy="1em" transform="translate(62.5 17.5)">LargeurIterator</text></g><rect fill="rgb(255,255,255)" x="1" y="50" width="123" height="2"/><g transform="translate(0 52)" cursor="pointer"><rect fill="rgb(96,125,139)" stroke="none" fill-opacity="1" y="0" height="20" ry="0" x="0" rx="0" width="125"/><polygon fill="white" points="-3.5,5 6,0 -3.5,-5" transform="translate(12 10)" class="uml-button"/><g class="uml-button"><rect fill="rgb(96,125,139)" fill-opacity="1" x="88px" y="2px" width="16px" height="16px"/><path fill="white" d="M8.5,16.5c-4.418,0-8,3.582-8,8s3.582,8,8,8c4.418,0,8-3.582,8-8S12.918,16.5,8.5,16.5z M13.5,25.5h-4v4h-2v-4h-4v-2h4v-4h2v4h4V25.5z" transform="matrix(0.8 0 0 0.8 89 -10)"/></g><g class="uml-button disabled"><rect fill="rgb(96,125,139)" fill-opacity="1" x="106px" y="2px" width="16px" height="16px"/><path fill="white" fill-opacity="0.5" d="M8.5,16.5c-4.418,0-8,3.582-8,8s3.582,8,8,8c4.418,0,8-3.582,8-8S12.918,16.5,8.5,16.5z M13.5,25.5h-10v-2h10V25.5z" transform="matrix(0.8 0 0 0.8 107 -10)"/></g></g><g transform="translate(25 52)" cursor="pointer"><text font-family="'Arial'" font-size="12px" font-style="normal" font-weight="normal" text-decoration="none" text-anchor="start" fill="rgb(255,255,255)" fill-opacity="1" dy="1em" transform="translate(0 2.5)">Attributes</text></g><rect fill="rgb(255,255,255)" x="1" y="72" width="123" height="0"/><g transform="translate(0 72)" cursor="pointer"><rect fill="rgb(96,125,139)" stroke="none" fill-opacity="1" y="0" height="20" ry="0" x="0" rx="0" width="125"/><polygon fill="white" points="-3.5,5 6,0 -3.5,-5" transform="translate(12 10)" class="uml-button"/><g class="uml-button"><rect fill="rgb(96,125,139)" fill-opacity="1" x="88px" y="2px" width="16px" height="16px"/><path fill="white" d="M8.5,16.5c-4.418,0-8,3.582-8,8s3.582,8,8,8c4.418,0,8-3.582,8-8S12.918,16.5,8.5,16.5z M13.5,25.5h-4v4h-2v-4h-4v-2h4v-4h2v4h4V25.5z" transform="matrix(0.8 0 0 0.8 89 -10)"/></g><g class="uml-button disabled"><rect fill="rgb(96,125,139)" fill-opacity="1" x="106px" y="2px" width="16px" height="16px"/><path fill="white" fill-opacity="0.5" d="M8.5,16.5c-4.418,0-8,3.582-8,8s3.582,8,8,8c4.418,0,8-3.582,8-8S12.918,16.5,8.5,16.5z M13.5,25.5h-10v-2h10V25.5z" transform="matrix(0.8 0 0 0.8 107 -10)"/></g></g><g transform="translate(25 72)" cursor="pointer"><text font-family="'Arial'" font-size="12px" font-style="normal" font-weight="normal" text-decoration="none" text-anchor="start" fill="rgb(255,255,255)" fill-opacity="1" dy="1em" transform="translate(0 2.5)">Operations</text></g><rect fill="rgb(255,255,255)" x="1" y="92" width="123" height="0"/><rect fill="rgb(255,255,255)" x="1" y="92" width="123" height="2"/></g><g class="uml-node" transform="translate(0 227.35462958854532)"><rect fill="rgb(76,175,80)" stroke="rgb(76,175,80)" stroke-opacity="1" stroke-width="2" stroke-linecap="butt" stroke-linejoin="miter" stroke-miterlimit="10" fill-opacity="1" y="0" height="124" x="0" width="164"/><g transform="translate(0 0)"><text font-family="'Arial'" font-size="12px" font-style="normal" font-weight="normal" text-decoration="none" text-anchor="middle" fill="rgb(255,255,255)" fill-opacity="1" dy="1em" transform="translate(82 17.5)">ExpressionVisitor</text></g><g transform="translate(0 5)"><text font-family="Arial" font-size="10px" font-style="italic" font-weight="normal" text-decoration="none" text-anchor="middle" fill="rgb(255,255,255)" fill-opacity="1" dy="1em" transform="translate(82 0)">&lt;&lt;interface&gt;&gt;</text></g><rect fill="rgb(255,255,255)" x="1" y="50" width="162" height="2"/><g transform="translate(0 52)" cursor="pointer"><rect fill="rgb(76,175,80)" stroke="none" fill-opacity="1" y="0" height="20" ry="0" x="0" rx="0" width="164"/><polygon fill="white" points="-3.5,5 6,0 -3.5,-5" transform="translate(12 10)" class="uml-button"/><g class="uml-button"><rect fill="rgb(76,175,80)" fill-opacity="1" x="127px" y="2px" width="16px" height="16px"/><path fill="white" d="M8.5,16.5c-4.418,0-8,3.582-8,8s3.582,8,8,8c4.418,0,8-3.582,8-8S12.918,16.5,8.5,16.5z M13.5,25.5h-4v4h-2v-4h-4v-2h4v-4h2v4h4V25.5z" transform="matrix(0.8 0 0 0.8 128 -10)"/></g><g class="uml-button disabled"><rect fill="rgb(76,175,80)" fill-opacity="1" x="145px" y="2px" width="16px" height="16px"/><path fill="white" fill-opacity="0.5" d="M8.5,16.5c-4.418,0-8,3.582-8,8s3.582,8,8,8c4.418,0,8-3.582,8-8S12.918,16.5,8.5,16.5z M13.5,25.5h-10v-2h10V25.5z" transform="matrix(0.8 0 0 0.8 146 -10)"/></g></g><g transform="translate(25 52)" cursor="pointer"><text font-family="'Arial'" font-size="12px" font-style="normal" font-weight="normal" text-decoration="none" text-anchor="start" fill="rgb(255,255,255)" fill-opacity="1" dy="1em" transform="translate(0 2.5)">Attributes</text></g><rect fill="rgb(255,255,255)" x="1" y="72" width="162" height="0"/><g transform="translate(0 72)" cursor="pointer"><rect fill="rgb(76,175,80)" stroke="none" fill-opacity="1" y="0" height="20" ry="0" x="0" rx="0" width="164"/><polygon fill="white" points="-5,-3.5 5,-3.5 0,6" transform="translate(12 10)" class="uml-button"/><g class="uml-button"><rect fill="rgb(76,175,80)" fill-opacity="1" x="127px" y="2px" width="16px" height="16px"/><path fill="white" d="M8.5,16.5c-4.418,0-8,3.582-8,8s3.582,8,8,8c4.418,0,8-3.582,8-8S12.918,16.5,8.5,16.5z M13.5,25.5h-4v4h-2v-4h-4v-2h4v-4h2v4h4V25.5z" transform="matrix(0.8 0 0 0.8 128 -10)"/></g><g class="uml-button disabled"><rect fill="rgb(76,175,80)" fill-opacity="1" x="145px" y="2px" width="16px" height="16px"/><path fill="white" fill-opacity="0.5" d="M8.5,16.5c-4.418,0-8,3.582-8,8s3.582,8,8,8c4.418,0,8-3.582,8-8S12.918,16.5,8.5,16.5z M13.5,25.5h-10v-2h10V25.5z" transform="matrix(0.8 0 0 0.8 146 -10)"/></g></g><g transform="translate(25 72)" cursor="pointer"><text font-family="'Arial'" font-size="12px" font-style="normal" font-weight="normal" text-decoration="none" text-anchor="start" fill="rgb(255,255,255)" fill-opacity="1" dy="1em" transform="translate(0 2.5)">Operations</text></g><rect fill="rgb(255,255,255)" x="1" y="92" width="162" height="32"/><g transform="translate(25 92)"><text font-family="'Arial'" font-size="12px" font-style="normal" font-weight="normal" text-decoration="none" text-anchor="start" fill="rgb(0,0,0)" fill-opacity="1" dy="1em" transform="translate(0 0.5)">visit(NumberExpression)</text></g><g transform="translate(25 108)"><text font-family="'Arial'" font-size="12px" font-style="normal" font-weight="normal" text-decoration="none" text-anchor="start" fill="rgb(0,0,0)" fill-opacity="1" dy="1em" transform="translate(0 0.5)">visit(BinaryExpression)</text></g><rect fill="rgb(255,255,255)" x="1" y="124" width="162" height="0"/></g><g class="uml-node" transform="translate(4.000000000000014 0)"><rect fill="rgb(96,125,139)" stroke="rgb(96,125,139)" stroke-opacity="1" stroke-width="2" stroke-linecap="butt" stroke-linejoin="miter" stroke-miterlimit="10" fill-opacity="1" y="0" height="92" x="0" width="156"/><g transform="translate(0 0)"><text font-family="'Arial'" font-size="12px" font-style="normal" font-weight="normal" text-decoration="none" text-anchor="middle" fill="rgb(255,255,255)" fill-opacity="1" dy="1em" transform="translate(78 17.5)">OperationExpressionVisitor</text></g><rect fill="rgb(255,255,255)" x="1" y="50" width="154" height="2"/><g transform="translate(0 52)" cursor="pointer"><rect fill="rgb(96,125,139)" stroke="none" fill-opacity="1" y="0" height="20" ry="0" x="0" rx="0" width="156"/><polygon fill="white" points="-3.5,5 6,0 -3.5,-5" transform="translate(12 10)" class="uml-button"/><g class="uml-button"><rect fill="rgb(96,125,139)" fill-opacity="1" x="119px" y="2px" width="16px" height="16px"/><path fill="white" d="M8.5,16.5c-4.418,0-8,3.582-8,8s3.582,8,8,8c4.418,0,8-3.582,8-8S12.918,16.5,8.5,16.5z M13.5,25.5h-4v4h-2v-4h-4v-2h4v-4h2v4h4V25.5z" transform="matrix(0.8 0 0 0.8 120 -10)"/></g><g class="uml-button disabled"><rect fill="rgb(96,125,139)" fill-opacity="1" x="137px" y="2px" width="16px" height="16px"/><path fill="white" fill-opacity="0.5" d="M8.5,16.5c-4.418,0-8,3.582-8,8s3.582,8,8,8c4.418,0,8-3.582,8-8S12.918,16.5,8.5,16.5z M13.5,25.5h-10v-2h10V25.5z" transform="matrix(0.8 0 0 0.8 138 -10)"/></g></g><g transform="translate(25 52)" cursor="pointer"><text font-family="'Arial'" font-size="12px" font-style="normal" font-weight="normal" text-decoration="none" text-anchor="start" fill="rgb(255,255,255)" fill-opacity="1" dy="1em" transform="translate(0 2.5)">Attributes</text></g><rect fill="rgb(255,255,255)" x="1" y="72" width="154" height="0"/><g transform="translate(0 72)" cursor="pointer"><rect fill="rgb(96,125,139)" stroke="none" fill-opacity="1" y="0" height="20" ry="0" x="0" rx="0" width="156"/><polygon fill="white" points="-3.5,5 6,0 -3.5,-5" transform="translate(12 10)" class="uml-button"/><g class="uml-button"><rect fill="rgb(96,125,139)" fill-opacity="1" x="119px" y="2px" width="16px" height="16px"/><path fill="white" d="M8.5,16.5c-4.418,0-8,3.582-8,8s3.582,8,8,8c4.418,0,8-3.582,8-8S12.918,16.5,8.5,16.5z M13.5,25.5h-4v4h-2v-4h-4v-2h4v-4h2v4h4V25.5z" transform="matrix(0.8 0 0 0.8 120 -10)"/></g><g class="uml-button disabled"><rect fill="rgb(96,125,139)" fill-opacity="1" x="137px" y="2px" width="16px" height="16px"/><path fill="white" fill-opacity="0.5" d="M8.5,16.5c-4.418,0-8,3.582-8,8s3.582,8,8,8c4.418,0,8-3.582,8-8S12.918,16.5,8.5,16.5z M13.5,25.5h-10v-2h10V25.5z" transform="matrix(0.8 0 0 0.8 138 -10)"/></g></g><g transform="translate(25 72)" cursor="pointer"><text font-family="'Arial'" font-size="12px" font-style="normal" font-weight="normal" text-decoration="none" text-anchor="start" fill="rgb(255,255,255)" fill-opacity="1" dy="1em" transform="translate(0 2.5)">Operations</text></g><rect fill="rgb(255,255,255)" x="1" y="92" width="154" height="0"/><rect fill="rgb(255,255,255)" x="1" y="92" width="154" height="2"/></g><g class="uml-node" transform="translate(4.000000000000014 486.70925917709064)"><rect fill="rgb(96,125,139)" stroke="rgb(96,125,139)" stroke-opacity="1" stroke-width="2" stroke-linecap="butt" stroke-linejoin="miter" stroke-miterlimit="10" fill-opacity="1" y="0" height="92" x="0" width="156"/><g transform="translate(0 0)"><text font-family="'Arial'" font-size="12px" font-style="normal" font-weight="normal" text-decoration="none" text-anchor="middle" fill="rgb(255,255,255)" fill-opacity="1" dy="1em" transform="translate(78 17.5)">EvaluateExpressionVisitor</text></g><rect fill="rgb(255,255,255)" x="1" y="50" width="154" height="2"/><g transform="translate(0 52)" cursor="pointer"><rect fill="rgb(96,125,139)" stroke="none" fill-opacity="1" y="0" height="20" ry="0" x="0" rx="0" width="156"/><polygon fill="white" points="-3.5,5 6,0 -3.5,-5" transform="translate(12 10)" class="uml-button"/><g class="uml-button"><rect fill="rgb(96,125,139)" fill-opacity="1" x="119px" y="2px" width="16px" height="16px"/><path fill="white" d="M8.5,16.5c-4.418,0-8,3.582-8,8s3.582,8,8,8c4.418,0,8-3.582,8-8S12.918,16.5,8.5,16.5z M13.5,25.5h-4v4h-2v-4h-4v-2h4v-4h2v4h4V25.5z" transform="matrix(0.8 0 0 0.8 120 -10)"/></g><g class="uml-button disabled"><rect fill="rgb(96,125,139)" fill-opacity="1" x="137px" y="2px" width="16px" height="16px"/><path fill="white" fill-opacity="0.5" d="M8.5,16.5c-4.418,0-8,3.582-8,8s3.582,8,8,8c4.418,0,8-3.582,8-8S12.918,16.5,8.5,16.5z M13.5,25.5h-10v-2h10V25.5z" transform="matrix(0.8 0 0 0.8 138 -10)"/></g></g><g transform="translate(25 52)" cursor="pointer"><text font-family="'Arial'" font-size="12px" font-style="normal" font-weight="normal" text-decoration="none" text-anchor="start" fill="rgb(255,255,255)" fill-opacity="1" dy="1em" transform="translate(0 2.5)">Attributes</text></g><rect fill="rgb(255,255,255)" x="1" y="72" width="154" height="0"/><g transform="translate(0 72)" cursor="pointer"><rect fill="rgb(96,125,139)" stroke="none" fill-opacity="1" y="0" height="20" ry="0" x="0" rx="0" width="156"/><polygon fill="white" points="-3.5,5 6,0 -3.5,-5" transform="translate(12 10)" class="uml-button"/><g class="uml-button"><rect fill="rgb(96,125,139)" fill-opacity="1" x="119px" y="2px" width="16px" height="16px"/><path fill="white" d="M8.5,16.5c-4.418,0-8,3.582-8,8s3.582,8,8,8c4.418,0,8-3.582,8-8S12.918,16.5,8.5,16.5z M13.5,25.5h-4v4h-2v-4h-4v-2h4v-4h2v4h4V25.5z" transform="matrix(0.8 0 0 0.8 120 -10)"/></g><g class="uml-button disabled"><rect fill="rgb(96,125,139)" fill-opacity="1" x="137px" y="2px" width="16px" height="16px"/><path fill="white" fill-opacity="0.5" d="M8.5,16.5c-4.418,0-8,3.582-8,8s3.582,8,8,8c4.418,0,8-3.582,8-8S12.918,16.5,8.5,16.5z M13.5,25.5h-10v-2h10V25.5z" transform="matrix(0.8 0 0 0.8 138 -10)"/></g></g><g transform="translate(25 72)" cursor="pointer"><text font-family="'Arial'" font-size="12px" font-style="normal" font-weight="normal" text-decoration="none" text-anchor="start" fill="rgb(255,255,255)" fill-opacity="1" dy="1em" transform="translate(0 2.5)">Operations</text></g><rect fill="rgb(255,255,255)" x="1" y="92" width="154" height="0"/><rect fill="rgb(255,255,255)" x="1" y="92" width="154" height="2"/></g></g></g><defs><path fill="rgb(255,255,255)" stroke="rgb(255,255,255)" d="M 0,0 L 10,-5 L 5,0 L 10,5 Z" fill-opacity="1" stroke-opacity="1" stroke-width="1" stroke-linecap="butt" stroke-linejoin="miter" stroke-miterlimit="10" id="ygc152_0"/><path fill="rgb(255,255,255)" stroke="rgb(255,255,255)" d="M 0,0 L 10,-5 L 5,0 L 10,5 Z" fill-opacity="1" stroke-opacity="1" stroke-width="1" stroke-linecap="butt" stroke-linejoin="miter" stroke-miterlimit="10" id="ygc152_1"/><path fill="rgb(0,0,0)" stroke="rgb(255,255,255)" d="M 5,-5 L 0,0 L 5,5 Z" fill-opacity="1" stroke-opacity="1" stroke-width="1" stroke-linecap="butt" stroke-linejoin="miter" stroke-miterlimit="10" id="ygc152_2"/></defs></svg>